<svg xmlns="http://www.w3.org/2000/svg" width="288" height="58" viewBox="0 0 288 58">
  <path d="M38.3087735 18.7429412C38.1254531 20.0482941 37.3790773 21.2320588 36.2110647 22.074 36.0041745 22.2208235 35.8548994 22.4227059 35.7815712 22.6475294 35.4096928 23.8014706 34.8702071 24.921 34.1762086 25.9762941 33.9693184 26.2882941 33.9431298 26.6668235 34.1054993 26.9971765 34.2652499 27.3298235 34.5952266 27.5752941 34.9932936 27.6624706L38.298298 28.3851176C43.5962567 29.5459412 47.6293048 33.3381176 48.5668576 38.0479412 48.6742309 38.5985294 49.2189543 39 49.8553379 39L50.0857978 39C50.8086038 39 51.395229 38.4861176 51.395229 37.8529412 51.395229 35.9557059 53.1577234 34.4117647 55.3235226 34.4117647L56.6381915 34.4117647C56.6565236 34.4117647 56.6774745 34.4117647 56.6905688 34.4117647 57.4133748 34.4117647 58 33.8978824 58 33.2647059 58 32.799 57.6831176 32.3975294 57.2274356 32.2185882 56.0279966 31.4500588 54.7316597 30.9109412 53.3724701 30.6127059L46.1548853 29.0297647 45.6232562 27.1577647C47.5324069 25.4463529 48.8523136 23.1499412 49.2922825 20.787 50.4210122 20.4337059 51.2721424 19.5504706 51.4240365 18.4584706L51.908526 15.0654706C52.023756 14.2625294 51.7409188 13.455 51.1333427 12.8470588 50.8374113 12.5488235 50.4733894 12.3102353 50.0727035 12.1450588L50.2324541 9.27511765 50.8688376 8.71535294C52.0447069 7.62105882 53.0215425 5.75364706 51.0102562 3.06264706 49.4939349 1.03005882 46.9300686 0 43.3946043 0 42.0956485 0 40.3671993.0688235294 38.5104259.621705882 38.1385474.731823529 37.842616.981882353 37.7038163 1.30535294 37.5650165 1.62652941 37.5990618 1.98670588 37.7954764 2.28264706 39.5841595 4.992 39.4532163 7.77476471 37.4340734 9.91747059 37.0307686 10.3464706 37.0360063 10.9658824 37.4445489 11.3902941 38.5051882 12.4868824 38.9975343 13.9275882 38.7958819 15.3522353L38.3087735 18.7429412zM43.6906893 38.7223488C43.7108326 38.7246264 43.7284579 38.7223488 43.7410474 38.7223488 44.4359893 38.7223488 45 38.2121549 45 37.5835231 45 37.3580357 44.9294987 37.1530471 44.8061213 36.9731126 43.6932073 33.7206266 40.7875448 31.2174879 37.1516898 30.3929782L30.2123433 28.8213988 29.7012086 26.9628354C31.5367614 25.2637076 32.8057856 22.9837787 33.2287936 20.6377979 34.3140107 20.2870396 35.1323299 19.4101439 35.2783684 18.3259819L35.7441808 14.9573357C35.8549687 14.1601578 35.5830349 13.3584245 34.9988809 12.754847 34.7143577 12.4587523 34.3643688 12.2218766 33.9791294 12.0578857L34.1327216 9.20854397 34.7445725 8.65279707C35.8751119 7.56635742 36.8142905 5.71234931 34.8805394 3.04066441 33.4226723 1.02266541 30.9576432 0 27.5584714 0 26.2466428 0 23.2377462 0 20.4000671 1.69001722 12.2269472 1.87450697 11.1669091 5.53241487 11.1669091 8.71429365 11.1669091 9.43630909 11.3406446 10.9555025 11.4740936 11.9986667 11.0410139 12.1626576 10.6507386 12.4131993 10.3334825 12.7389034 9.74177484 13.3447586 9.46480528 14.1533248 9.57811101 14.9550581L10.0439235 18.3237042C10.2025515 19.4807511 11.1266226 20.4009222 12.3175918 20.6970168 12.7380819 22.9450586 13.9416406 25.1429921 15.6664056 26.8079551L15.1099485 28.8213988 8.17060206 30.3884229C3.35888541 31.4771402 0 35.3696461 0 39.8543414 0 40.4829732.564010743 40.993167 1.25895255 40.993167L37.2045658 41C37.6527529 41 38.0682073 40.7836231 38.2948187 40.4351425 38.9822068 39.3623688 40.198355 38.7223488 41.5429163 38.7223488L43.6906893 38.7223488zM60.8330856 43.7505624L58.3483494 43.7505624 61.8036492 38.7500625C62.043957 38.4058985 62.0649548 37.9605099 61.8596432 37.5938515 61.6566648 37.2294426 61.2623733 37 60.8330856 37L56.1669144 37C55.5229828 37 55.0003716 37.503874 55.0003716 38.1247188 55.0003716 38.7455636 55.5229828 39.2494376 56.1669144 39.2494376L58.6516506 39.2494376 55.1963508 44.2499375C54.956043 44.5941015 54.9350452 45.0394901 55.1403568 45.4061485 55.3433352 45.7705574 55.7376267 46 56.1669144 46L60.8330856 46C61.4770172 46 61.9996284 45.496126 61.9996284 44.8752812 61.9996284 44.2544364 61.4770172 43.7505624 60.8330856 43.7505624zM52.6982224 52.6666667L45.0029294 52.6666667 53.7147291 42.8946667C54.0267004 42.5446667 54.0890947 42.0663333 53.8707147 41.6603333 53.6549345 41.2566667 53.1999763 41 52.7008222 41L42.3017776 41C41.5842435 41 41.001897 41.5226667 41.001897 42.1666667 41.001897 42.8106667 41.5842435 43.3333333 42.3017776 43.3333333L49.9970706 43.3333333 41.2852709 53.1053333C40.9732996 53.4553333 40.9109053 53.9336667 41.1292853 54.3396667 41.3450655 54.7456667 41.8000237 55 42.2991778 55L52.6982224 55C53.4157565 55 53.998103 54.4773333 53.998103 53.8333333 53.998103 53.1893333 53.4157565 52.6666667 52.6982224 52.6666667zM79.4133333 33.1C82.2366667 33.1 84.7483333 32.3177778 86.9483333 30.7533333 86.9483333 30.7411111 86.9727778 30.7227778 87.0216667 30.6983333 89.4905556 28.8894444 90.725 26.5733333 90.725 23.75 90.725 22.3322222 90.4041667 21.0275 89.7625 19.8358333 89.1208333 18.6441667 88.1827778 17.6144444 86.9483333 16.7466667 84.7361111 15.1822222 82.2244444 14.4 79.4133333 14.4 78.2766667 14.4 77.2255556 14.1127778 76.26 13.5383333 75.9055556 13.3183333 75.6152778 13.0922222 75.3891667 12.86 75.1630556 12.6277778 75.0133333 12.3925 74.94 12.1541667 74.8666667 11.9158333 74.83 11.6561111 74.83 11.375 74.83 11.0938889 74.8666667 10.8341667 74.94 10.5958333 75.0133333 10.3575 75.1630556 10.1222222 75.3891667 9.89 75.6152778 9.65777778 75.9055556 9.43166667 76.26 9.21166667 76.7366667 8.91833333 77.2347222 8.70138889 77.7541667 8.56083333 78.2736111 8.42027778 78.8266667 8.35 79.4133333 8.35 80.22 8.35 80.9655556 8.49972222 81.65 8.79916667 82.3344444 9.09861111 82.9944444 9.56611111 83.63 10.2016667 83.9111111 10.4827778 84.2044444 10.7027778 84.51 10.8616667 84.8155556 11.0205556 85.1455556 11.1 85.5 11.1 86.16 11.1 86.7405556 10.8616667 87.2416667 10.385 87.7672222 9.89611111 88.03 9.30944444 88.03 8.625 88.03 8.11166667 87.8588889 7.61666667 87.5166667 7.14 86.6733333 5.91777778 85.445 4.97055556 83.8316667 4.29833333 82.4138889 3.69944444 80.9411111 3.4 79.4133333 3.4 78.24 3.4 77.1155556 3.56805556 76.04 3.90416667 74.9644444 4.24027778 73.9683333 4.73833333 73.0516667 5.39833333 72.5505556 5.77722222 72.0983333 6.18666667 71.695 6.62666667 71.2916667 7.06666667 70.9555556 7.53722222 70.6866667 8.03833333 70.4177778 8.53944444 70.2130556 9.07111111 70.0725 9.63333333 69.9319444 10.1955556 69.8616667 10.7761111 69.8616667 11.375 69.8616667 12.5727778 70.1305556 13.6788889 70.6683333 14.6933333 71.2061111 15.7077778 72.0005556 16.5938889 73.0516667 17.3516667 74.9094444 18.6838889 77.03 19.35 79.4133333 19.35 81.0144444 19.3622222 82.4566667 19.7716667 83.74 20.5783333 84.4488889 21.0183333 84.9652778 21.495 85.2891667 22.0083333 85.6130556 22.5216667 85.775 23.1022222 85.775 23.75 85.775 24.0677778 85.7413889 24.3641667 85.6741667 24.6391667 85.6069444 24.9141667 85.4908333 25.1891667 85.3258333 25.4641667 85.1608333 25.7391667 84.9469444 25.9927778 84.6841667 26.225 84.4213889 26.4572222 84.1066667 26.6894444 83.74 26.9216667 82.4444444 27.7405556 81.0022222 28.15 79.4133333 28.15 77.36 28.1377778 75.6977778 27.5633333 74.4266667 26.4266667 74.0722222 26.0966667 73.8216667 25.84 73.675 25.6566667L73.675 25.6566667 73.675 25.62 73.6566667 25.6016667C73.4 25.3327778 73.1127778 25.1158333 72.795 24.9508333 72.4772222 24.7858333 72.1411111 24.7033333 71.7866667 24.7033333 71.1144444 24.6911111 70.5277778 24.9233333 70.0266667 25.4 69.5133333 25.8888889 69.2566667 26.4755556 69.2566667 27.16 69.2566667 27.6488889 69.4155556 28.1377778 69.7333333 28.6266667 70.7233333 30.0688889 72.1838889 31.1994444 74.115 32.0183333 75.8261111 32.7394444 77.5922222 33.1 79.4133333 33.1zM104.75 33.1C106.18 33.1 107.579444 32.77 108.948333 32.11 110.402778 31.4133333 111.508889 30.4844444 112.266667 29.3233333 112.584444 28.8222222 112.743333 28.3333333 112.743333 27.8566667 112.743333 27.5266667 112.676111 27.2088889 112.541667 26.9033333 112.407222 26.5977778 112.217778 26.3288889 111.973333 26.0966667 111.814444 25.95 111.640278 25.8216667 111.450833 25.7116667 111.261389 25.6016667 111.062778 25.5191667 110.855 25.4641667 110.647222 25.4091667 110.433333 25.3816667 110.213333 25.3816667 110.005556 25.3816667 109.813056 25.4061111 109.635833 25.455 109.458611 25.5038889 109.281389 25.5925 109.104167 25.7208333 108.926944 25.8491667 108.777222 25.9622222 108.655 26.06 108.532778 26.1577778 108.358611 26.3136111 108.1325 26.5275 107.906389 26.7413889 107.726111 26.9155556 107.591667 27.05 106.748333 27.7833333 105.801111 28.15 104.75 28.15 103.552222 28.15 102.519444 27.7161111 101.651667 26.8483333 100.783889 25.9805556 100.35 24.9477778 100.35 23.75L100.35 23.75 100.35 5.875C100.362222 5.11722222 100.136111 4.51833333 99.6716667 4.07833333 99.2316667 3.62611111 98.6327778 3.4 97.875 3.4 97.1172222 3.38777778 96.5183333 3.61388889 96.0783333 4.07833333 95.6261111 4.51833333 95.4 5.11722222 95.4 5.875L95.4 5.875 95.4 23.75C95.4 26.3288889 96.3136111 28.5319444 98.1408333 30.3591667 99.9680556 32.1863889 102.171111 33.1 104.75 33.1zM124.586667 33.1C126.53 33.1 128.381667 32.6355556 130.141667 31.7066667 131.999444 30.7411111 133.411111 29.4272222 134.376667 27.765 134.462222 27.6183333 134.529444 27.4808333 134.578333 27.3525 134.627222 27.2241667 134.666944 27.0866667 134.6975 26.94 134.728056 26.7933333 134.743333 26.6405556 134.743333 26.4816667 134.743333 25.785 134.480556 25.1922222 133.955 24.7033333 133.441667 24.2388889 132.861111 24.0066667 132.213333 24.0066667 132.091111 24.0066667 131.962778 24.0188889 131.828333 24.0433333 131.217222 24.1655556 130.679444 24.52 130.215 25.1066667 130.129444 25.2166667 130.053056 25.3175 129.985833 25.4091667 129.918611 25.5008333 129.854444 25.5863889 129.793333 25.6658333 129.732222 25.7452778 129.674167 25.8216667 129.619167 25.895 129.564167 25.9683333 129.512222 26.0355556 129.463333 26.0966667 128.84 26.7811111 128.134167 27.2944444 127.345833 27.6366667 126.5575 27.9788889 125.637778 28.15 124.586667 28.15 123.23 28.15 122.026111 27.8138889 120.975 27.1416667L120.975 27.1416667 133.423333 20.45C133.924444 20.1811111 134.285 19.8144444 134.505 19.35 134.578333 19.1911111 134.633333 19.0261111 134.67 18.855 134.706667 18.6838889 134.725 18.5127778 134.725 18.3416667 134.725 17.5961111 134.489722 16.8994444 134.019167 16.2516667 133.548611 15.6038889 132.879444 14.9622222 132.011667 14.3266667 130.703889 13.3733333 129.383889 12.6766667 128.051667 12.2366667 127.465 12.0288889 126.881389 11.8791667 126.300833 11.7875 125.720278 11.6958333 125.148889 11.65 124.586667 11.65 121.555556 11.65 118.94 12.6583333 116.74 14.675 114.43 16.7527778 113.275 19.3194444 113.275 22.375 113.275 25.4305556 114.43 27.9972222 116.74 30.075 118.94 32.0916667 121.555556 33.1 124.586667 33.1zM118.261667 22.98C118.237222 22.7722222 118.225 22.5705556 118.225 22.375 118.225 21.5438889 118.380833 20.7922222 118.6925 20.12 119.004167 19.4477778 119.49 18.8244444 120.15 18.25 120.785556 17.6877778 121.466944 17.2722222 122.194167 17.0033333 122.921389 16.7344444 123.718889 16.6 124.586667 16.6 125.955556 16.6 127.165556 16.9361111 128.216667 17.6083333L128.216667 17.6083333 118.261667 22.98zM146.586667 33.1C148.53 33.1 150.381667 32.6355556 152.141667 31.7066667 153.999444 30.7411111 155.411111 29.4272222 156.376667 27.765 156.462222 27.6183333 156.529444 27.4808333 156.578333 27.3525 156.627222 27.2241667 156.666944 27.0866667 156.6975 26.94 156.728056 26.7933333 156.743333 26.6405556 156.743333 26.4816667 156.743333 25.785 156.480556 25.1922222 155.955 24.7033333 155.441667 24.2388889 154.861111 24.0066667 154.213333 24.0066667 154.091111 24.0066667 153.962778 24.0188889 153.828333 24.0433333 153.217222 24.1655556 152.679444 24.52 152.215 25.1066667 152.129444 25.2166667 152.053056 25.3175 151.985833 25.4091667 151.918611 25.5008333 151.854444 25.5863889 151.793333 25.6658333 151.732222 25.7452778 151.674167 25.8216667 151.619167 25.895 151.564167 25.9683333 151.512222 26.0355556 151.463333 26.0966667 150.84 26.7811111 150.134167 27.2944444 149.345833 27.6366667 148.5575 27.9788889 147.637778 28.15 146.586667 28.15 145.23 28.15 144.026111 27.8138889 142.975 27.1416667L142.975 27.1416667 155.423333 20.45C155.924444 20.1811111 156.285 19.8144444 156.505 19.35 156.578333 19.1911111 156.633333 19.0261111 156.67 18.855 156.706667 18.6838889 156.725 18.5127778 156.725 18.3416667 156.725 17.5961111 156.489722 16.8994444 156.019167 16.2516667 155.548611 15.6038889 154.879444 14.9622222 154.011667 14.3266667 152.703889 13.3733333 151.383889 12.6766667 150.051667 12.2366667 149.465 12.0288889 148.881389 11.8791667 148.300833 11.7875 147.720278 11.6958333 147.148889 11.65 146.586667 11.65 143.555556 11.65 140.94 12.6583333 138.74 14.675 136.43 16.7527778 135.275 19.3194444 135.275 22.375 135.275 25.4305556 136.43 27.9972222 138.74 30.075 140.94 32.0916667 143.555556 33.1 146.586667 33.1zM140.261667 22.98C140.237222 22.7722222 140.225 22.5705556 140.225 22.375 140.225 21.5438889 140.380833 20.7922222 140.6925 20.12 141.004167 19.4477778 141.49 18.8244444 142.15 18.25 142.785556 17.6877778 143.466944 17.2722222 144.194167 17.0033333 144.921389 16.7344444 145.718889 16.6 146.586667 16.6 147.955556 16.6 149.165556 16.9361111 150.216667 17.6083333L150.216667 17.6083333 140.261667 22.98zM161.583333 41.35C162.353333 41.3622222 162.958333 41.1361111 163.398333 40.6716667 163.850556 40.2316667 164.076667 39.6327778 164.076667 38.875L164.076667 38.875 164.076667 31.725C165.518889 32.6416667 167.132222 33.1 168.916667 33.1 171.764444 33.1 174.141667 31.9816667 176.048333 29.745 176.928333 28.7183333 177.594444 27.5816667 178.046667 26.335 178.498889 25.0883333 178.725 23.7683333 178.725 22.375 178.725 19.5638889 177.832778 17.1072222 176.048333 15.005 175.571667 14.4672222 175.0675 13.9905556 174.535833 13.575 174.004167 13.1594444 173.435833 12.8080556 172.830833 12.5208333 172.225833 12.2336111 171.596389 12.0166667 170.9425 11.87 170.288611 11.7233333 169.613333 11.65 168.916667 11.65 167.987778 11.65 167.098611 11.7752778 166.249167 12.0258333 165.399722 12.2763889 164.602222 12.6583333 163.856667 13.1716667 163.783333 12.9883333 163.694722 12.8141667 163.590833 12.6491667 163.486944 12.4841667 163.355556 12.3344444 163.196667 12.2 162.976667 12.0044444 162.72 11.8638889 162.426667 11.7783333 162.145556 11.6927778 161.864444 11.65 161.583333 11.65 160.813333 11.6377778 160.208333 11.8638889 159.768333 12.3283333 159.328333 12.7683333 159.108333 13.3672222 159.108333 14.125L159.108333 14.125 159.108333 38.875C159.108333 39.2172222 159.160278 39.5441667 159.264167 39.8558333 159.368056 40.1675 159.542222 40.4394444 159.786667 40.6716667 159.908889 40.8061111 160.043333 40.9161111 160.19 41.0016667 160.336667 41.0872222 160.486389 41.1544444 160.639167 41.2033333 160.791944 41.2522222 160.947778 41.2888889 161.106667 41.3133333 161.265556 41.3377778 161.424444 41.35 161.583333 41.35zM168.925833 28.15C167.550833 28.15 166.392778 27.5633333 165.451667 26.39 164.535 25.2411111 164.076667 23.9027778 164.076667 22.375 164.076667 21.5927778 164.189722 20.8747222 164.415833 20.2208333 164.641944 19.5669444 164.987222 18.9466667 165.451667 18.36 165.683889 18.0544444 165.931389 17.7916667 166.194167 17.5716667 166.456944 17.3516667 166.731944 17.1683333 167.019167 17.0216667 167.306389 16.875 167.605833 16.7680556 167.9175 16.7008333 168.229167 16.6336111 168.562222 16.6 168.916667 16.6 170.297778 16.6 171.458889 17.1866667 172.4 18.36 173.316667 19.5088889 173.775 20.8472222 173.775 22.375 173.775 23.9027778 173.316667 25.2411111 172.4 26.39 171.458889 27.5633333 170.300833 28.15 168.925833 28.15zM189.541667 41.35C192.120556 41.35 194.320556 40.4333333 196.141667 38.6 196.765 38.0011111 197.275278 37.3533333 197.6725 36.6566667 198.069722 35.96 198.372222 35.2205556 198.58 34.4383333 198.787778 33.6561111 198.891667 32.8433333 198.891667 32L198.891667 32 198.891667 14.125C198.891667 13.355 198.665556 12.7561111 198.213333 12.3283333 197.773333 11.8761111 197.174444 11.65 196.416667 11.65 196.196667 11.65 195.982778 11.6713889 195.775 11.7141667 195.567222 11.7569444 195.359444 11.8302778 195.151667 11.9341667 194.943889 12.0380556 194.760556 12.1694444 194.601667 12.3283333 194.503889 12.4261111 194.415278 12.5330556 194.335833 12.6491667 194.256389 12.7652778 194.189167 12.8813889 194.134167 12.9975 194.079167 13.1136111 194.039444 13.2388889 194.015 13.3733333 193.990556 13.5077778 193.969167 13.6330556 193.950833 13.7491667 193.9325 13.8652778 193.923333 13.9905556 193.923333 14.125L193.923333 14.125 193.923333 23.7683333C193.923333 24.3916667 193.819444 24.9477778 193.611667 25.4366667 193.403889 25.9255556 193.08 26.3961111 192.64 26.8483333 192.2 27.3005556 191.7325 27.6305556 191.2375 27.8383333 190.7425 28.0461111 190.177222 28.15 189.541667 28.15 188.331667 28.15 187.295833 27.7161111 186.434167 26.8483333 185.5725 25.9805556 185.141667 24.9477778 185.141667 23.75L185.141667 23.75 185.141667 14.125C185.153889 13.3672222 184.927778 12.7683333 184.463333 12.3283333 184.023333 11.8761111 183.424444 11.65 182.666667 11.65 181.896667 11.6377778 181.291667 11.8638889 180.851667 12.3283333 180.399444 12.7683333 180.173333 13.3672222 180.173333 14.125L180.173333 14.125 180.173333 23.75C180.173333 26.3288889 181.09 28.5319444 182.923333 30.3591667 184.756667 32.1863889 186.962778 33.1 189.541667 33.1 189.932778 33.1 190.320833 33.0786111 190.705833 33.0358333 191.090833 32.9930556 191.466667 32.9258333 191.833333 32.8341667 192.2 32.7425 192.554444 32.6294444 192.896667 32.495 193.238889 32.3605556 193.581111 32.2016667 193.923333 32.0183333 193.935556 33.2161111 193.513889 34.2488889 192.658333 35.1166667 192.206111 35.5566667 191.7325 35.8805556 191.2375 36.0883333 190.7425 36.2961111 190.177222 36.4 189.541667 36.4 188.111667 36.4 186.822222 35.6361111 185.673333 34.1083333 185.098889 33.3505556 184.420556 32.9716667 183.638333 32.9716667 182.990556 32.9716667 182.41 33.2038889 181.896667 33.6683333 181.652222 33.8883333 181.459722 34.1572222 181.319167 34.475 181.178611 34.7927778 181.108333 35.1166667 181.108333 35.4466667 181.096111 35.8377778 181.2 36.2472222 181.42 36.675 182.214444 38.105 183.369444 39.2477778 184.885 40.1033333 185.263889 40.3111111 185.636667 40.4913889 186.003333 40.6441667 186.37 40.7969444 186.748889 40.9283333 187.14 41.0383333 187.531111 41.1483333 187.928333 41.2277778 188.331667 41.2766667 188.735 41.3255556 189.138333 41.35 189.541667 41.35zM239.5 33.1C239.842222 33.1 240.169167 33.0480556 240.480833 32.9441667 240.7925 32.8402778 241.064444 32.6661111 241.296667 32.4216667 241.467778 32.275 241.605278 32.0977778 241.709167 31.89 241.813056 31.6822222 241.883333 31.4744444 241.92 31.2666667 241.956667 31.0588889 241.975 30.845 241.975 30.625 241.975 29.855 241.748889 29.2561111 241.296667 28.8283333 240.856667 28.3761111 240.257778 28.15 239.5 28.15L239.5 28.15 236.475 28.15 236.475 8.35 239.5 8.35C239.72 8.35 239.933889 8.32861111 240.141667 8.28583333 240.349444 8.24305556 240.554167 8.16972222 240.755833 8.06583333 240.9575 7.96194444 241.137778 7.83055556 241.296667 7.67166667 241.406667 7.57388889 241.501389 7.46694444 241.580833 7.35083333 241.660278 7.23472222 241.724444 7.11861111 241.773333 7.0025 241.822222 6.88638889 241.858889 6.76111111 241.883333 6.62666667 241.907778 6.49222222 241.929167 6.36694444 241.9475 6.25083333 241.965833 6.13472222 241.975 6.00944444 241.975 5.875 241.987222 5.11722222 241.761111 4.51833333 241.296667 4.07833333 240.856667 3.62611111 240.257778 3.4 239.5 3.4L239.5 3.4 228.5 3.4C227.742222 3.38777778 227.143333 3.61388889 226.703333 4.07833333 226.251111 4.51833333 226.025 5.11722222 226.025 5.875 226.025 6.095 226.046389 6.30888889 226.089167 6.51666667 226.131944 6.72444444 226.205278 6.92916667 226.309167 7.13083333 226.413056 7.3325 226.544444 7.51277778 226.703333 7.67166667 226.825556 7.80611111 226.96 7.91611111 227.106667 8.00166667 227.253333 8.08722222 227.403056 8.15444444 227.555833 8.20333333 227.708611 8.25222222 227.864444 8.28888889 228.023333 8.31333333 228.182222 8.33777778 228.341111 8.35 228.5 8.35L228.5 8.35 231.525 8.35 231.525 28.15 228.5 28.15C228.157778 28.15 227.830833 28.2019444 227.519167 28.3058333 227.2075 28.4097222 226.935556 28.5838889 226.703333 28.8283333 226.251111 29.2683333 226.025 29.8672222 226.025 30.625 226.025 30.9672222 226.076944 31.2941667 226.180833 31.6058333 226.284722 31.9175 226.458889 32.1894444 226.703333 32.4216667 226.935556 32.6661111 227.2075 32.8402778 227.519167 32.9441667 227.830833 33.0480556 228.157778 33.1 228.5 33.1L228.5 33.1 239.5 33.1zM263.333333 33.1C264.103333 33.1122222 264.708333 32.8861111 265.148333 32.4216667 265.600556 31.9816667 265.826667 31.3827778 265.826667 30.625L265.826667 30.625 265.826667 21C265.826667 18.4211111 264.91 16.2211111 263.076667 14.4 262.624444 13.9477778 262.144722 13.5475 261.6375 13.1991667 261.130278 12.8508333 260.598611 12.5636111 260.0425 12.3375 259.486389 12.1113889 258.908889 11.9402778 258.31 11.8241667 257.711111 11.7080556 257.093889 11.65 256.458333 11.65 254.698333 11.65 253.103333 12.0838889 251.673333 12.9516667 251.49 12.5605556 251.239444 12.255 250.921667 12.035 250.542778 11.7783333 250.096667 11.65 249.583333 11.65 248.813333 11.6377778 248.208333 11.8638889 247.768333 12.3283333 247.328333 12.7683333 247.108333 13.3672222 247.108333 14.125L247.108333 14.125 247.108333 30.625C247.108333 30.9672222 247.160278 31.2941667 247.264167 31.6058333 247.368056 31.9175 247.542222 32.1894444 247.786667 32.4216667 247.908889 32.5561111 248.043333 32.6661111 248.19 32.7516667 248.336667 32.8372222 248.486389 32.9044444 248.639167 32.9533333 248.791944 33.0022222 248.947778 33.0388889 249.106667 33.0633333 249.265556 33.0877778 249.424444 33.1 249.583333 33.1 250.353333 33.1122222 250.958333 32.8861111 251.398333 32.4216667 251.850556 31.9816667 252.076667 31.3827778 252.076667 30.625L252.076667 30.625 252.076667 21C252.064444 19.79 252.486111 18.7511111 253.341667 17.8833333 253.793889 17.4433333 254.2675 17.1194444 254.7625 16.9116667 255.2575 16.7038889 255.822778 16.6 256.458333 16.6 256.873889 16.6 257.261944 16.6458333 257.6225 16.7375 257.983056 16.8291667 258.322222 16.9727778 258.64 17.1683333 258.957778 17.3638889 259.269444 17.6022222 259.575 17.8833333 260.015 18.3477778 260.338889 18.8244444 260.546667 19.3133333 260.754444 19.8022222 260.858333 20.3644444 260.858333 21L260.858333 21 260.858333 30.625C260.846111 31.3827778 261.072222 31.9816667 261.536667 32.4216667 261.976667 32.8738889 262.575556 33.1 263.333333 33.1zM285.333333 33.1C286.103333 33.1122222 286.708333 32.8861111 287.148333 32.4216667 287.600556 31.9816667 287.826667 31.3827778 287.826667 30.625L287.826667 30.625 287.826667 21C287.826667 18.4211111 286.91 16.2211111 285.076667 14.4 284.624444 13.9477778 284.144722 13.5475 283.6375 13.1991667 283.130278 12.8508333 282.598611 12.5636111 282.0425 12.3375 281.486389 12.1113889 280.908889 11.9402778 280.31 11.8241667 279.711111 11.7080556 279.093889 11.65 278.458333 11.65 276.698333 11.65 275.103333 12.0838889 273.673333 12.9516667 273.49 12.5605556 273.239444 12.255 272.921667 12.035 272.542778 11.7783333 272.096667 11.65 271.583333 11.65 270.813333 11.6377778 270.208333 11.8638889 269.768333 12.3283333 269.328333 12.7683333 269.108333 13.3672222 269.108333 14.125L269.108333 14.125 269.108333 30.625C269.108333 30.9672222 269.160278 31.2941667 269.264167 31.6058333 269.368056 31.9175 269.542222 32.1894444 269.786667 32.4216667 269.908889 32.5561111 270.043333 32.6661111 270.19 32.7516667 270.336667 32.8372222 270.486389 32.9044444 270.639167 32.9533333 270.791944 33.0022222 270.947778 33.0388889 271.106667 33.0633333 271.265556 33.0877778 271.424444 33.1 271.583333 33.1 272.353333 33.1122222 272.958333 32.8861111 273.398333 32.4216667 273.850556 31.9816667 274.076667 31.3827778 274.076667 30.625L274.076667 30.625 274.076667 21C274.064444 19.79 274.486111 18.7511111 275.341667 17.8833333 275.793889 17.4433333 276.2675 17.1194444 276.7625 16.9116667 277.2575 16.7038889 277.822778 16.6 278.458333 16.6 278.873889 16.6 279.261944 16.6458333 279.6225 16.7375 279.983056 16.8291667 280.322222 16.9727778 280.64 17.1683333 280.957778 17.3638889 281.269444 17.6022222 281.575 17.8833333 282.015 18.3477778 282.338889 18.8244444 282.546667 19.3133333 282.754444 19.8022222 282.858333 20.3644444 282.858333 21L282.858333 21 282.858333 30.625C282.846111 31.3827778 283.072222 31.9816667 283.536667 32.4216667 283.976667 32.8738889 284.575556 33.1 285.333333 33.1zM70.60625 55.00625C70.7854167 55.00625 70.9270833 54.9041667 71.03125 54.7L71.03125 54.7 73 50.9C72.9590774 53.2474702 72.9364238 54.4672433 72.9320392 54.5593192L72.932 54.561 72.9358796 54.6395062C72.9607253 54.8497942 73.0838735 54.9680813 73.3053241 54.9943673L73.40625 55C73.6104167 55 73.7604167 54.8895833 73.85625 54.66875L73.85625 54.66875 77.50625 46.28125C77.5354167 46.2145833 77.55 46.14375 77.55 46.06875 77.55 45.94375 77.4989583 45.8375 77.396875 45.75 77.2947917 45.6625 77.18125 45.61875 77.05625 45.61875 76.8604167 45.61875 76.7208333 45.7145833 76.6375 45.90625L76.6375 45.90625 73.9125 52.18125C73.9515432 50.1155093 73.9739569 49.0157922 73.9797411 48.8820988L73.98 48.872 73.9804012 48.8701389 73.9777778 48.8016204C73.9518519 48.5547068 73.7925926 48.43125 73.5 48.43125 73.3125 48.43125 73.1645833 48.5354167 73.05625 48.74375L73.05625 48.74375 71.30625 52.13125 71.9125 46.14375 71.9125 46.08125C71.9125 45.7770833 71.7541667 45.625 71.4375 45.625 71.1666667 45.625 71.0166667 45.7645833 70.9875 46.04375L70.9875 46.04375 70.125 54.43125C70.1208333 54.5104167 70.1166667 54.5479167 70.1125 54.54375 70.1125 54.8520833 70.2770833 55.00625 70.60625 55.00625zM78.6625 55C79.4708333 55 80.14375 54.8833333 80.68125 54.65 80.8895833 54.5583333 80.99375 54.4166667 80.99375 54.225 80.9895833 53.9 80.8395833 53.7375 80.54375 53.7375 80.49375 53.7375 80.4354167 53.7479167 80.36875 53.76875 79.7604167 53.9645833 79.1916667 54.0625 78.6625 54.0625 77.7041667 54.0625 76.9708333 53.8229167 76.4625 53.34375L76.4625 53.34375 80.5625 51.7875C80.9916667 51.6208333 81.3458333 51.38125 81.625 51.06875 81.9416667 50.7229167 82.1 50.3375 82.1 49.9125 82.1 49.4208333 81.8916667 49.0395833 81.475 48.76875 81.1208333 48.5479167 80.6833333 48.4375 80.1625 48.4375 78.9708333 48.4375 77.85 48.7770833 76.8 49.45625 75.6125 50.2270833 75.01875 51.1770833 75.01875 52.30625 75.01875 53.1604167 75.4270833 53.8416667 76.24375 54.35 76.9479167 54.7833333 77.7541667 55 78.6625 55zM75.99375 52.51875C75.9729167 52.4270833 75.9625 52.3270833 75.9625 52.21875 75.9625 51.4020833 76.475 50.7041667 77.5 50.125 78.3875 49.625 79.275 49.375 80.1625 49.375 80.8291667 49.375 81.1625 49.55625 81.1625 49.91875 81.1625 50.3395833 80.8520833 50.66875 80.23125 50.90625L80.23125 50.90625 75.99375 52.51875zM94.83125 55C95.0604167 55 95.20625 54.8833333 95.26875 54.65 96.1770833 51.2666667 96.63125 49.5604167 96.63125 49.53125 96.63125 49.4145833 96.58125 49.3 96.48125 49.1875 96.04375 48.6875 95.3666667 48.4375 94.45 48.4375 93.4541667 48.4375 92.53125 48.7770833 91.68125 49.45625 90.8479167 50.11875 90.2979167 50.9354167 90.03125 51.90625 89.9604167 52.16875 89.925 52.4270833 89.925 52.68125 89.925 53.3645833 90.1510417 53.921875 90.603125 54.353125 91.0552083 54.784375 91.625 55 92.3125 55 93.0375 55 93.73125 54.7666667 94.39375 54.3 94.3604167 54.425 94.34375 54.5104167 94.34375 54.55625 94.3395833 54.8520833 94.5020833 55 94.83125 55zM92.3125 54.0625C91.8875 54.0625 91.5395833 53.9375 91.26875 53.6875 90.9979167 53.4375 90.8625 53.1020833 90.8625 52.68125 90.8625 52.51875 90.8875 52.3416667 90.9375 52.15 91.1291667 51.4 91.5697917 50.75 92.259375 50.2 92.9489583 49.65 93.6791667 49.375 94.45 49.375 94.95 49.375 95.34375 49.4770833 95.63125 49.68125L95.63125 49.68125 95.03125 51.90625C94.8770833 52.48125 94.5364583 52.984375 94.009375 53.415625 93.4822917 53.846875 92.9166667 54.0625 92.3125 54.0625zM97.95625 55C98.1854167 55 98.33125 54.8833333 98.39375 54.65L98.39375 54.65 99.14375 51.8375C99.31875 51.1708333 99.7114583 50.59375 100.321875 50.10625 100.932292 49.61875 101.579167 49.375 102.2625 49.375 102.929167 49.375 103.429167 49.6416667 103.7625 50.175 103.8625 50.3416667 103.991667 50.425 104.15 50.425 104.279167 50.425 104.39375 50.3791667 104.49375 50.2875 104.59375 50.1958333 104.64375 50.0875 104.64375 49.9625 104.64375 49.8875 104.622917 49.8083333 104.58125 49.725 104.36875 49.3125 104.04375 48.9916667 103.60625 48.7625 103.19375 48.5458333 102.745833 48.4375 102.2625 48.4375 101.404167 48.4375 100.591667 48.7270833 99.825 49.30625 99.8875 49.06875 99.91875 48.9270833 99.91875 48.88125 99.9229167 48.5854167 99.7604167 48.4375 99.43125 48.4375 99.2020833 48.4375 99.05625 48.5541667 98.99375 48.7875L98.99375 48.7875 98.24375 51.6C97.7270833 53.5416667 97.46875 54.5270833 97.46875 54.55625 97.4645833 54.8520833 97.6270833 55 97.95625 55zM108.6625 55C109.470833 55 110.14375 54.8833333 110.68125 54.65 110.889583 54.5583333 110.99375 54.4166667 110.99375 54.225 110.989583 53.9 110.839583 53.7375 110.54375 53.7375 110.49375 53.7375 110.435417 53.7479167 110.36875 53.76875 109.760417 53.9645833 109.191667 54.0625 108.6625 54.0625 107.704167 54.0625 106.970833 53.8229167 106.4625 53.34375L106.4625 53.34375 110.5625 51.7875C110.991667 51.6208333 111.345833 51.38125 111.625 51.06875 111.941667 50.7229167 112.1 50.3375 112.1 49.9125 112.1 49.4208333 111.891667 49.0395833 111.475 48.76875 111.120833 48.5479167 110.683333 48.4375 110.1625 48.4375 108.970833 48.4375 107.85 48.7770833 106.8 49.45625 105.6125 50.2270833 105.01875 51.1770833 105.01875 52.30625 105.01875 53.1604167 105.427083 53.8416667 106.24375 54.35 106.947917 54.7833333 107.754167 55 108.6625 55zM105.99375 52.51875C105.972917 52.4270833 105.9625 52.3270833 105.9625 52.21875 105.9625 51.4020833 106.475 50.7041667 107.5 50.125 108.3875 49.625 109.275 49.375 110.1625 49.375 110.829167 49.375 111.1625 49.55625 111.1625 49.91875 111.1625 50.3395833 110.852083 50.66875 110.23125 50.90625L110.23125 50.90625 105.99375 52.51875zM124.83125 55C125.060417 55 125.20625 54.8833333 125.26875 54.65 126.177083 51.2666667 126.63125 49.5604167 126.63125 49.53125 126.63125 49.4145833 126.58125 49.3 126.48125 49.1875 126.04375 48.6875 125.366667 48.4375 124.45 48.4375 123.454167 48.4375 122.53125 48.7770833 121.68125 49.45625 120.847917 50.11875 120.297917 50.9354167 120.03125 51.90625 119.960417 52.16875 119.925 52.4270833 119.925 52.68125 119.925 53.3645833 120.151042 53.921875 120.603125 54.353125 121.055208 54.784375 121.625 55 122.3125 55 123.0375 55 123.73125 54.7666667 124.39375 54.3 124.360417 54.425 124.34375 54.5104167 124.34375 54.55625 124.339583 54.8520833 124.502083 55 124.83125 55zM122.3125 54.0625C121.8875 54.0625 121.539583 53.9375 121.26875 53.6875 120.997917 53.4375 120.8625 53.1020833 120.8625 52.68125 120.8625 52.51875 120.8875 52.3416667 120.9375 52.15 121.129167 51.4 121.569792 50.75 122.259375 50.2 122.948958 49.65 123.679167 49.375 124.45 49.375 124.95 49.375 125.34375 49.4770833 125.63125 49.68125L125.63125 49.68125 125.03125 51.90625C124.877083 52.48125 124.536458 52.984375 124.009375 53.415625 123.482292 53.846875 122.916667 54.0625 122.3125 54.0625zM131.0625 55C132.0125 55 132.83125 54.64375 133.51875 53.93125 133.61875 53.8270833 133.66875 53.7166667 133.66875 53.6 133.66875 53.475 133.619792 53.3635417 133.521875 53.265625 133.423958 53.1677083 133.3125 53.11875 133.1875 53.11875 133.079167 53.11875 132.972917 53.1645833 132.86875 53.25625 132.252083 53.79375 131.65 54.0625 131.0625 54.0625 130.666667 54.0625 130.35 53.95 130.1125 53.725 129.858333 53.4958333 129.73125 53.1875 129.73125 52.8 129.73125 52.6416667 129.754167 52.4770833 129.8 52.30625L129.8 52.30625 131.4375 46.2125C131.454167 46.1625 131.4625 46.1145833 131.4625 46.06875 131.4625 45.7729167 131.297917 45.625 130.96875 45.625 130.739583 45.625 130.59375 45.7416667 130.53125 45.975L130.53125 45.975 128.89375 52.0625C128.83125 52.3125 128.8 52.55625 128.8 52.79375 128.8 53.44375 129.013542 53.9739583 129.440625 54.384375 129.867708 54.7947917 130.408333 55 131.0625 55zM137.5125 55.00625C137.683333 55.00625 137.827083 54.9041667 137.94375 54.7L137.94375 54.7 141.10625 49.1375C141.152083 49.0541667 141.175 48.9729167 141.175 48.89375 141.175 48.76875 141.123958 48.6604167 141.021875 48.56875 140.919792 48.4770833 140.80625 48.43125 140.68125 48.43125 140.510417 48.43125 140.379167 48.5125 140.2875 48.675L140.2875 48.675 137.925 52.84375 137.7875 48.89375C137.779167 48.5895833 137.622917 48.4375 137.31875 48.4375 136.997917 48.4375 136.841667 48.5979167 136.85 48.91875L136.85 48.91875 136.9125 50.66875 135.66875 52.85625 135.54375 48.89375C135.535417 48.5895833 135.379167 48.4375 135.075 48.4375 134.754167 48.4375 134.597917 48.5979167 134.60625 48.91875L134.60625 48.91875 134.78125 54.475C134.79375 54.8291667 134.954167 55.00625 135.2625 55.00625 135.433333 55.00625 135.577083 54.9041667 135.69375 54.7L135.69375 54.7 136.96875 52.46875 137.03125 54.475C137.04375 54.8291667 137.204167 55.00625 137.5125 55.00625zM145.76875 55C145.997917 55 146.14375 54.8833333 146.20625 54.65 147.114583 51.2666667 147.56875 49.5604167 147.56875 49.53125 147.56875 49.4145833 147.51875 49.3 147.41875 49.1875 146.98125 48.6875 146.304167 48.4375 145.3875 48.4375 144.391667 48.4375 143.46875 48.7770833 142.61875 49.45625 141.785417 50.11875 141.235417 50.9354167 140.96875 51.90625 140.897917 52.16875 140.8625 52.4270833 140.8625 52.68125 140.8625 53.3645833 141.088542 53.921875 141.540625 54.353125 141.992708 54.784375 142.5625 55 143.25 55 143.975 55 144.66875 54.7666667 145.33125 54.3 145.297917 54.425 145.28125 54.5104167 145.28125 54.55625 145.277083 54.8520833 145.439583 55 145.76875 55zM143.25 54.0625C142.825 54.0625 142.477083 53.9375 142.20625 53.6875 141.935417 53.4375 141.8 53.1020833 141.8 52.68125 141.8 52.51875 141.825 52.3416667 141.875 52.15 142.066667 51.4 142.507292 50.75 143.196875 50.2 143.886458 49.65 144.616667 49.375 145.3875 49.375 145.8875 49.375 146.28125 49.4770833 146.56875 49.68125L146.56875 49.68125 145.96875 51.90625C145.814583 52.48125 145.473958 52.984375 144.946875 53.415625 144.419792 53.846875 143.854167 54.0625 143.25 54.0625zM150.15625 57.8125C150.927083 57.8125 151.640625 57.5510417 152.296875 57.028125 152.953125 56.5052083 153.38125 55.86875 153.58125 55.11875L153.58125 55.11875 155.2125 49.025C155.225 48.975 155.23125 48.9270833 155.23125 48.88125 155.23125 48.5854167 155.06875 48.4375 154.74375 48.4375 154.514583 48.4375 154.36875 48.5541667 154.30625 48.7875L154.30625 48.7875 153.425 52.06875C153.275 52.6145833 152.957292 53.0833333 152.471875 53.475 151.986458 53.8666667 151.464583 54.0625 150.90625 54.0625 150.510417 54.0625 150.19375 53.95 149.95625 53.725 149.702083 53.4958333 149.575 53.1875 149.575 52.8 149.575 52.6416667 149.597917 52.4770833 149.64375 52.30625L149.64375 52.30625 150.525 49.025C150.5375 48.975 150.54375 48.9270833 150.54375 48.88125 150.547917 48.5854167 150.385417 48.4375 150.05625 48.4375 149.827083 48.4375 149.68125 48.5541667 149.61875 48.7875L149.61875 48.7875 148.7375 52.06875C148.679167 52.3020833 148.65 52.54375 148.65 52.79375 148.65 53.44375 148.8625 53.9739583 149.2875 54.384375 149.7125 54.7947917 150.252083 55 150.90625 55 151.564583 55 152.197917 54.7958333 152.80625 54.3875 152.735417 54.6666667 152.691667 54.83125 152.675 54.88125 152.508333 55.4270833 152.191667 55.89375 151.725 56.28125 151.2375 56.6770833 150.714583 56.875 150.15625 56.875 149.53125 56.875 149.108333 56.5958333 148.8875 56.0375 148.8 55.8125 148.65625 55.7 148.45625 55.7 148.13125 55.7 147.96875 55.8541667 147.96875 56.1625 147.96875 56.2125 147.977083 56.2645833 147.99375 56.31875 148.139583 56.7895833 148.414583 57.1583333 148.81875 57.425 149.20625 57.6833333 149.652083 57.8125 150.15625 57.8125zM158.49375 55C159.95625 55 160.983333 54.5145833 161.575 53.54375 161.775 53.2145833 161.875 52.8770833 161.875 52.53125 161.875 51.9354167 161.608333 51.48125 161.075 51.16875 160.641667 50.9104167 160.104167 50.78125 159.4625 50.78125 158.708333 50.78125 158.33125 50.6145833 158.33125 50.28125 158.33125 50.0104167 158.541667 49.78125 158.9625 49.59375 159.3 49.4479167 159.627083 49.375 159.94375 49.375 160.29375 49.375 160.59375 49.4729167 160.84375 49.66875 161.09375 49.8645833 161.24375 49.9625 161.29375 49.9625 161.422917 49.9625 161.5375 49.9166667 161.6375 49.825 161.7375 49.7333333 161.7875 49.625 161.7875 49.5 161.7875 49.4208333 161.760417 49.3354167 161.70625 49.24375 161.39375 48.70625 160.80625 48.4375 159.94375 48.4375 159.31875 48.4375 158.75625 48.59375 158.25625 48.90625 157.68125 49.2645833 157.39375 49.7416667 157.39375 50.3375 157.39375 50.8083333 157.595833 51.1666667 158 51.4125 158.333333 51.6166667 158.75 51.71875 159.25 51.71875 160.375 51.71875 160.9375 52.0125 160.9375 52.6 160.9375 52.9125 160.7625 53.2020833 160.4125 53.46875 159.895833 53.8645833 159.25625 54.0625 158.49375 54.0625 157.647917 54.0625 157.122917 53.8208333 156.91875 53.3375 156.827083 53.1166667 156.68125 53.00625 156.48125 53.00625 156.15625 53.0104167 155.99375 53.1604167 155.99375 53.45625 155.989583 53.5104167 155.995833 53.5645833 156.0125 53.61875 156.1625 54.0854167 156.495833 54.4416667 157.0125 54.6875 157.45 54.8958333 157.94375 55 158.49375 55zM174.7 55.00625C174.870833 55.00625 175.014583 54.9041667 175.13125 54.7L175.13125 54.7 178.29375 49.1375C178.339583 49.0541667 178.3625 48.9729167 178.3625 48.89375 178.3625 48.76875 178.311458 48.6604167 178.209375 48.56875 178.107292 48.4770833 177.99375 48.43125 177.86875 48.43125 177.697917 48.43125 177.566667 48.5125 177.475 48.675L177.475 48.675 175.1125 52.84375 174.975 48.89375C174.966667 48.5895833 174.810417 48.4375 174.50625 48.4375 174.185417 48.4375 174.029167 48.5979167 174.0375 48.91875L174.0375 48.91875 174.1 50.66875 172.85625 52.85625 172.73125 48.89375C172.722917 48.5895833 172.566667 48.4375 172.2625 48.4375 171.941667 48.4375 171.785417 48.5979167 171.79375 48.91875L171.79375 48.91875 171.96875 54.475C171.98125 54.8291667 172.141667 55.00625 172.45 55.00625 172.620833 55.00625 172.764583 54.9041667 172.88125 54.7L172.88125 54.7 174.15625 52.46875 174.21875 54.475C174.23125 54.8291667 174.391667 55.00625 174.7 55.00625zM182.95625 55C183.185417 55 183.33125 54.8833333 183.39375 54.65 184.302083 51.2666667 184.75625 49.5604167 184.75625 49.53125 184.75625 49.4145833 184.70625 49.3 184.60625 49.1875 184.16875 48.6875 183.491667 48.4375 182.575 48.4375 181.579167 48.4375 180.65625 48.7770833 179.80625 49.45625 178.972917 50.11875 178.422917 50.9354167 178.15625 51.90625 178.085417 52.16875 178.05 52.4270833 178.05 52.68125 178.05 53.3645833 178.276042 53.921875 178.728125 54.353125 179.180208 54.784375 179.75 55 180.4375 55 181.1625 55 181.85625 54.7666667 182.51875 54.3 182.485417 54.425 182.46875 54.5104167 182.46875 54.55625 182.464583 54.8520833 182.627083 55 182.95625 55zM180.4375 54.0625C180.0125 54.0625 179.664583 53.9375 179.39375 53.6875 179.122917 53.4375 178.9875 53.1020833 178.9875 52.68125 178.9875 52.51875 179.0125 52.3416667 179.0625 52.15 179.254167 51.4 179.694792 50.75 180.384375 50.2 181.073958 49.65 181.804167 49.375 182.575 49.375 183.075 49.375 183.46875 49.4770833 183.75625 49.68125L183.75625 49.68125 183.15625 51.90625C183.002083 52.48125 182.661458 52.984375 182.134375 53.415625 181.607292 53.846875 181.041667 54.0625 180.4375 54.0625zM189.1875 55C190.1375 55 190.95625 54.64375 191.64375 53.93125 191.74375 53.8270833 191.79375 53.7166667 191.79375 53.6 191.79375 53.475 191.744792 53.3635417 191.646875 53.265625 191.548958 53.1677083 191.4375 53.11875 191.3125 53.11875 191.195833 53.11875 191.089583 53.1645833 190.99375 53.25625 190.389583 53.79375 189.7875 54.0625 189.1875 54.0625 188.791667 54.0625 188.475 53.95 188.2375 53.725 187.983333 53.4958333 187.85625 53.1875 187.85625 52.8 187.85625 52.6416667 187.879167 52.4770833 187.925 52.30625L187.925 52.30625 188.7125 49.375 191.16875 49.375C191.48125 49.375 191.6375 49.21875 191.6375 48.90625 191.6375 48.59375 191.48125 48.4375 191.16875 48.4375L191.16875 48.4375 188.9625 48.4375C189.379167 46.9041667 189.5875 46.1145833 189.5875 46.06875 189.5875 45.7729167 189.422917 45.625 189.09375 45.625 188.864583 45.625 188.71875 45.7416667 188.65625 45.975L188.65625 45.975 187.99375 48.4375 186.95 48.4375C186.6375 48.4375 186.48125 48.59375 186.48125 48.90625 186.48125 49.21875 186.6375 49.375 186.95 49.375L186.95 49.375 187.74375 49.375 187.01875 52.06875C186.95625 52.3020833 186.925 52.54375 186.925 52.79375 186.925 53.44375 187.138542 53.9739583 187.565625 54.384375 187.992708 54.7947917 188.533333 55 189.1875 55zM195.9125 55C196.366667 55 196.858333 54.91875 197.3875 54.75625 197.9375 54.5854167 198.379167 54.3666667 198.7125 54.1 198.854167 53.9875 198.925 53.8625 198.925 53.725 198.925 53.5916667 198.878125 53.4770833 198.784375 53.38125 198.690625 53.2854167 198.58125 53.2375 198.45625 53.2375 198.372917 53.2375 198.283333 53.2666667 198.1875 53.325 197.391667 53.8166667 196.633333 54.0625 195.9125 54.0625 195.316667 54.0625 194.829167 53.9395833 194.45 53.69375 193.995833 53.4020833 193.76875 52.9729167 193.76875 52.40625 193.772917 52.0020833 193.889583 51.5979167 194.11875 51.19375 194.447917 50.6229167 194.916667 50.1729167 195.525 49.84375 196.108333 49.53125 196.739583 49.375 197.41875 49.375 198.114583 49.375 198.702083 49.5979167 199.18125 50.04375 199.297917 50.1479167 199.410417 50.2 199.51875 50.2 199.647917 50.2 199.761458 50.1520833 199.859375 50.05625 199.957292 49.9604167 200.00625 49.85 200.00625 49.725 200.00625 49.6208333 199.9625 49.5166667 199.875 49.4125 199.329167 48.7625 198.510417 48.4375 197.41875 48.4375 196.302083 48.4375 195.272917 48.80625 194.33125 49.54375 193.31875 50.3354167 192.81246 51.275 192.81246 52.3625 192.808333 53.1666667 193.127083 53.81875 193.76875 54.31875 194.364583 54.7729167 195.079167 55 195.9125 55zM205.44375 55C205.672917 55 205.81875 54.8833333 205.88125 54.65L205.88125 54.65 206.7625 51.36875C206.820833 51.1354167 206.85 50.89375 206.85 50.64375 206.85 49.9895833 206.638542 49.4583333 206.215625 49.05 205.792708 48.6416667 205.252083 48.4375 204.59375 48.4375 203.935417 48.4375 203.302083 48.6416667 202.69375 49.05 203.214583 47.1083333 203.475 46.1145833 203.475 46.06875 203.479167 45.7729167 203.316667 45.625 202.9875 45.625 202.7625 45.625 202.61875 45.7416667 202.55625 45.975L202.55625 45.975 200.2875 54.4125C200.275 54.4625 200.26875 54.5104167 200.26875 54.55625 200.26875 54.8520833 200.429167 55 200.75 55 200.983333 55 201.13125 54.8833333 201.19375 54.65L201.19375 54.65 202.075 51.36875C202.225 50.8270833 202.544792 50.359375 203.034375 49.965625 203.523958 49.571875 204.04375 49.375 204.59375 49.375 204.985417 49.375 205.305208 49.4885417 205.553125 49.715625 205.801042 49.9427083 205.925 50.25 205.925 50.6375 205.925 50.7958333 205.902083 50.9604167 205.85625 51.13125L205.85625 51.13125 204.975 54.4125C204.9625 54.4625 204.95625 54.5104167 204.95625 54.55625 204.952083 54.8520833 205.114583 55 205.44375 55zM212.5625 47.03125C212.770833 47.03125 212.953125 46.9583333 213.109375 46.8125 213.265625 46.6666667 213.34375 46.4895833 213.34375 46.28125 213.34375 46.09375 213.28125 45.9375 213.15625 45.8125 213.03125 45.6875 212.875 45.625 212.6875 45.625 212.479167 45.625 212.295833 45.7020833 212.1375 45.85625 211.979167 46.0104167 211.9 46.1895833 211.9 46.39375 211.9 46.58125 211.963542 46.734375 212.090625 46.853125 212.217708 46.971875 212.375 47.03125 212.5625 47.03125zM212.3 55C212.6125 55 212.76875 54.84375 212.76875 54.53125 212.76875 54.21875 212.6125 54.0625 212.3 54.0625 212.0125 54.0625 211.778125 53.98125 211.596875 53.81875 211.415625 53.65625 211.325 53.4333333 211.325 53.15 211.329167 53.025 211.347917 52.9 211.38125 52.775L211.38125 52.775 212.375 49.08125C212.395833 49.0020833 212.40625 48.9395833 212.40625 48.89375 212.40625 48.5895833 212.252083 48.4375 211.94375 48.4375L211.94375 48.4375 210.0625 48.4375C209.75 48.4375 209.59375 48.59375 209.59375 48.90625 209.59375 49.21875 209.75 49.375 210.0625 49.375L210.0625 49.375 211.325 49.375 210.48125 52.5375C210.422917 52.7375 210.391667 52.9375 210.3875 53.1375 210.3875 53.6791667 210.56875 54.125 210.93125 54.475 211.29375 54.825 211.75 55 212.3 55zM220.44375 55C220.672917 55 220.81875 54.8833333 220.88125 54.65L220.88125 54.65 221.7625 51.36875C221.820833 51.1354167 221.85 50.89375 221.85 50.64375 221.85 49.9895833 221.638542 49.4583333 221.215625 49.05 220.792708 48.6416667 220.252083 48.4375 219.59375 48.4375 218.935417 48.4375 218.302083 48.6416667 217.69375 49.05 217.710417 48.9875 217.71875 48.93125 217.71875 48.88125 217.722917 48.5854167 217.560417 48.4375 217.23125 48.4375 217.002083 48.4375 216.85625 48.5541667 216.79375 48.7875L216.79375 48.7875 215.2875 54.4125C215.275 54.4625 215.26875 54.5104167 215.26875 54.55625 215.264583 54.8520833 215.427083 55 215.75625 55 215.985417 55 216.13125 54.8833333 216.19375 54.65L216.19375 54.65 217.075 51.36875C217.225 50.8270833 217.544792 50.359375 218.034375 49.965625 218.523958 49.571875 219.04375 49.375 219.59375 49.375 219.985417 49.375 220.305208 49.4885417 220.553125 49.715625 220.801042 49.9427083 220.925 50.25 220.925 50.6375 220.925 50.7958333 220.902083 50.9604167 220.85625 51.13125L220.85625 51.13125 219.975 54.4125C219.9625 54.4625 219.95625 54.5104167 219.95625 54.55625 219.952083 54.8520833 220.114583 55 220.44375 55zM224.675 57.8125C225.6375 57.8125 226.525 57.5020833 227.3375 56.88125 228.216667 56.2104167 228.65625 55.4083333 228.65625 54.475 228.660417 53.7083333 228.327083 53.10625 227.65625 52.66875 228.102083 52.41875 228.464583 52.1 228.74375 51.7125 229.05625 51.2833333 229.2125 50.83125 229.2125 50.35625 229.2125 49.99375 229.1125 49.6666667 228.9125 49.375L228.9125 49.375 229.75 49.375C230.0625 49.375 230.21875 49.21875 230.21875 48.90625 230.21875 48.59375 230.0625 48.4375 229.75 48.4375L229.75 48.4375 226.9375 48.4375C226.141667 48.4375 225.408333 48.6958333 224.7375 49.2125 224.016667 49.7708333 223.65625 50.4354167 223.65625 51.20625 223.660417 51.79375 223.9 52.26875 224.375 52.63125 224.804167 52.9604167 225.322917 53.125 225.93125 53.125 226.422917 53.125 226.822917 53.2208333 227.13125 53.4125 227.510417 53.6416667 227.7 53.9875 227.7 54.45 227.695833 54.7666667 227.597917 55.0895833 227.40625 55.41875 227.135417 55.88125 226.745833 56.2416667 226.2375 56.5 225.745833 56.75 225.225 56.875 224.675 56.875 224.2 56.875 223.797917 56.7666667 223.46875 56.55 223.085417 56.3041667 222.89375 55.9541667 222.89375 55.5 222.89375 55.4416667 222.90625 55.3541667 222.93125 55.2375 222.95625 55.1208333 222.96875 55.0333333 222.96875 54.975 222.96875 54.6791667 222.804167 54.53125 222.475 54.53125 222.125 54.53125 221.95 54.8625 221.95 55.525 221.95 56.2333333 222.235417 56.8020833 222.80625 57.23125 223.322917 57.61875 223.945833 57.8125 224.675 57.8125zM225.93125 52.1875C225.047917 52.1875 224.60625 51.8645833 224.60625 51.21875 224.597917 50.6979167 224.858333 50.2520833 225.3875 49.88125 225.870833 49.54375 226.3875 49.375 226.9375 49.375 227.816667 49.375 228.25625 49.6979167 228.25625 50.34375 228.25625 50.8645833 227.995833 51.3104167 227.475 51.68125 226.995833 52.01875 226.48125 52.1875 225.93125 52.1875zM235.425 55C235.633333 55 235.816667 54.9239583 235.975 54.771875 236.133333 54.6197917 236.2125 54.4395833 236.2125 54.23125 236.2125 54.04375 236.15 53.890625 236.025 53.771875 235.9 53.653125 235.74375 53.59375 235.55625 53.59375 235.347917 53.59375 235.165625 53.6666667 235.009375 53.8125 234.853125 53.9583333 234.775 54.1354167 234.775 54.34375 234.775 54.53125 234.836458 54.6875 234.959375 54.8125 235.082292 54.9375 235.2375 55 235.425 55zM232.925 55C233.133333 55 233.316667 54.9239583 233.475 54.771875 233.633333 54.6197917 233.7125 54.4395833 233.7125 54.23125 233.7125 54.04375 233.65 53.890625 233.525 53.771875 233.4 53.653125 233.24375 53.59375 233.05625 53.59375 232.847917 53.59375 232.665625 53.6666667 232.509375 53.8125 232.353125 53.9583333 232.275 54.1354167 232.275 54.34375 232.275 54.53125 232.336458 54.6875 232.459375 54.8125 232.582292 54.9375 232.7375 55 232.925 55zM230.425 55C230.633333 55 230.816667 54.9239583 230.975 54.771875 231.133333 54.6197917 231.2125 54.4395833 231.2125 54.23125 231.2125 54.04375 231.15 53.890625 231.025 53.771875 230.9 53.653125 230.74375 53.59375 230.55625 53.59375 230.347917 53.59375 230.165625 53.6666667 230.009375 53.8125 229.853125 53.9583333 229.775 54.1354167 229.775 54.34375 229.775 54.53125 229.836458 54.6875 229.959375 54.8125 230.082292 54.9375 230.2375 55 230.425 55z"/>
</svg>
